<?xml version="1.0" encoding="UTF-8" standalone="no"?>
<!DOCTYPE svg PUBLIC "-//W3C//DTD SVG 1.1//EN"
 "http://www.w3.org/Graphics/SVG/1.1/DTD/svg11.dtd">
<!-- Generated by graphviz version 2.40.1 (20161225.0304)
 -->
<!-- Title: learnHaskell Pages: 1 -->
<svg width="889pt" height="1293pt"
 viewBox="0.00 0.00 888.85 1293.20" xmlns="http://www.w3.org/2000/svg" xmlns:xlink="http://www.w3.org/1999/xlink">
<g id="graph0" class="graph" transform="scale(1 1) rotate(0) translate(4 1289.2)">
<title>learnHaskell</title>
<polygon fill="#ffffff" stroke="transparent" points="-4,4 -4,-1289.2 884.8523,-1289.2 884.8523,4 -4,4"/>
<g id="clust1" class="cluster">
<title>cluster_0</title>
<polygon fill="none" stroke="#006400" points="20,-224 20,-1277.2 298,-1277.2 298,-224 20,-224"/>
<text text-anchor="middle" x="159" y="-1260.6" font-family="Times,serif" font-size="14.00" fill="#000000">Learn You a Haskell for Great Good!</text>
</g>
<g id="clust2" class="cluster">
<title>cluster_1</title>
<polygon fill="none" stroke="#ff0000" points="384,-8 384,-902 592,-902 592,-8 384,-8"/>
<text text-anchor="middle" x="488" y="-885.4" font-family="Times,serif" font-size="14.00" fill="#000000">CIS 194</text>
</g>
<g id="clust3" class="cluster">
<title>cluster_2</title>
<polygon fill="none" stroke="#0000ff" points="621,-8 621,-1200.4 859,-1200.4 859,-8 621,-8"/>
<text text-anchor="middle" x="740" y="-1183.8" font-family="Times,serif" font-size="14.00" fill="#000000">Real World Haskell</text>
</g>
<!-- lyah01 -->
<g id="node1" class="node">
<title>lyah01</title>
<text text-anchor="middle" x="224" y="-1222.2" font-family="Times,serif" font-size="14.00" fill="#66cd00">1. Introduction</text>
</g>
<!-- lyah02 -->
<g id="node2" class="node">
<title>lyah02</title>
<text text-anchor="middle" x="224" y="-1145.4" font-family="Times,serif" font-size="14.00" fill="#66cd00">2. Starting Out</text>
</g>
<!-- lyah02&#45;&gt;lyah01 -->
<g id="edge13" class="edge">
<title>lyah02&#45;&gt;lyah01</title>
<path fill="none" stroke="#000000" d="M224,-1167.8005C224,-1176.8868 224,-1188.0824 224,-1198.2451"/>
<polygon fill="#000000" stroke="#000000" points="220.5001,-1198.3301 224,-1208.3301 227.5001,-1198.3302 220.5001,-1198.3301"/>
</g>
<!-- lyah03 -->
<g id="node3" class="node">
<title>lyah03</title>
<text text-anchor="middle" x="209" y="-1073.4" font-family="Times,serif" font-size="14.00" fill="#66cd00">3. Types and Typeclasses</text>
</g>
<!-- lyah03&#45;&gt;lyah02 -->
<g id="edge12" class="edge">
<title>lyah03&#45;&gt;lyah02</title>
<path fill="none" stroke="#000000" d="M212.7851,-1095.7686C214.3894,-1103.469 216.297,-1112.6257 218.0799,-1121.1834"/>
<polygon fill="#000000" stroke="#000000" points="214.6979,-1122.1108 220.1639,-1131.1867 221.5507,-1120.6831 214.6979,-1122.1108"/>
</g>
<!-- lyah04 -->
<g id="node4" class="node">
<title>lyah04</title>
<text text-anchor="middle" x="209" y="-998.6" font-family="Times,serif" font-size="14.00" fill="#66cd00">4. Syntax in Functions</text>
</g>
<!-- lyah04&#45;&gt;lyah03 -->
<g id="edge11" class="edge">
<title>lyah04&#45;&gt;lyah03</title>
<path fill="none" stroke="#000000" d="M209,-1020.907C209,-1029.3888 209,-1039.6938 209,-1049.1796"/>
<polygon fill="#000000" stroke="#000000" points="205.5001,-1049.4005 209,-1059.4005 212.5001,-1049.4005 205.5001,-1049.4005"/>
</g>
<!-- lyah05 -->
<g id="node5" class="node">
<title>lyah05</title>
<text text-anchor="middle" x="208" y="-923.8" font-family="Times,serif" font-size="14.00" fill="#66cd00">5. Recursion</text>
</g>
<!-- lyah05&#45;&gt;lyah04 -->
<g id="edge10" class="edge">
<title>lyah05&#45;&gt;lyah04</title>
<path fill="none" stroke="#000000" d="M208.2421,-946.107C208.3555,-954.5888 208.4932,-964.8938 208.62,-974.3796"/>
<polygon fill="#000000" stroke="#000000" points="205.1232,-974.6482 208.7567,-984.6005 212.1226,-974.5546 205.1232,-974.6482"/>
</g>
<!-- lyah06 -->
<g id="node6" class="node">
<title>lyah06</title>
<text text-anchor="middle" x="208" y="-847" font-family="Times,serif" font-size="14.00" fill="#66cd00">6. Higher Order Functions</text>
</g>
<!-- lyah06&#45;&gt;lyah05 -->
<g id="edge9" class="edge">
<title>lyah06&#45;&gt;lyah05</title>
<path fill="none" stroke="#000000" d="M208,-869.4005C208,-878.4868 208,-889.6824 208,-899.8451"/>
<polygon fill="#000000" stroke="#000000" points="204.5001,-899.9301 208,-909.9301 211.5001,-899.9302 204.5001,-899.9301"/>
</g>
<!-- lyah07 -->
<g id="node7" class="node">
<title>lyah07</title>
<text text-anchor="middle" x="184" y="-772.2" font-family="Times,serif" font-size="14.00" fill="#66cd00">7. Modules</text>
</g>
<!-- lyah07&#45;&gt;lyah06 -->
<g id="edge8" class="edge">
<title>lyah07&#45;&gt;lyah06</title>
<path fill="none" stroke="#000000" d="M189.8097,-794.507C192.5897,-803.1713 195.9801,-813.7378 199.0771,-823.3904"/>
<polygon fill="#000000" stroke="#000000" points="195.7727,-824.5479 202.1606,-833.0005 202.438,-822.4093 195.7727,-824.5479"/>
</g>
<!-- lyah08 -->
<g id="node8" class="node">
<title>lyah08</title>
<text text-anchor="middle" x="159" y="-697.4" font-family="Times,serif" font-size="14.00" fill="#000000">8. Making Our Own Types and Typeclasses</text>
</g>
<!-- lyah08&#45;&gt;lyah07 -->
<g id="edge7" class="edge">
<title>lyah08&#45;&gt;lyah07</title>
<path fill="none" stroke="#000000" d="M165.0518,-719.707C167.9476,-728.3713 171.4792,-738.9378 174.7053,-748.5904"/>
<polygon fill="#000000" stroke="#000000" points="171.4278,-749.8257 177.9173,-758.2005 178.0668,-747.6067 171.4278,-749.8257"/>
</g>
<!-- lyah09 -->
<g id="node9" class="node">
<title>lyah09</title>
<text text-anchor="middle" x="160" y="-619.8" font-family="Times,serif" font-size="14.00" fill="#000000">9. Input and Output</text>
</g>
<!-- lyah09&#45;&gt;lyah08 -->
<g id="edge6" class="edge">
<title>lyah09&#45;&gt;lyah08</title>
<path fill="none" stroke="#000000" d="M159.763,-642.3901C159.6447,-651.571 159.4989,-662.8833 159.3666,-673.1518"/>
<polygon fill="#000000" stroke="#000000" points="155.8645,-673.2976 159.2353,-683.3419 162.8639,-673.3879 155.8645,-673.2976"/>
</g>
<!-- lyah10 -->
<g id="node10" class="node">
<title>lyah10</title>
<text text-anchor="middle" x="162" y="-542.2" font-family="Times,serif" font-size="14.00" fill="#000000">10. Functionally Solving Problems</text>
</g>
<!-- lyah10&#45;&gt;lyah09 -->
<g id="edge5" class="edge">
<title>lyah10&#45;&gt;lyah09</title>
<path fill="none" stroke="#000000" d="M161.526,-564.7901C161.2894,-573.971 160.9979,-585.2833 160.7332,-595.5518"/>
<polygon fill="#000000" stroke="#000000" points="157.2295,-595.655 160.4706,-605.7419 164.2272,-595.8354 157.2295,-595.655"/>
</g>
<!-- lyah11 -->
<g id="node11" class="node">
<title>lyah11</title>
<text text-anchor="middle" x="166" y="-473" font-family="Times,serif" font-size="14.00" fill="#000000">11. Functors, Applicative Functors</text>
<text text-anchor="middle" x="166" y="-456.2" font-family="Times,serif" font-size="14.00" fill="#000000">and Monoids</text>
</g>
<!-- lyah11&#45;&gt;lyah10 -->
<g id="edge4" class="edge">
<title>lyah11&#45;&gt;lyah10</title>
<path fill="none" stroke="#000000" d="M164.9281,-489.5954C164.4775,-498.3372 163.9461,-508.6458 163.4606,-518.0651"/>
<polygon fill="#000000" stroke="#000000" points="159.9581,-518.024 162.9386,-528.1909 166.9488,-518.3844 159.9581,-518.024"/>
</g>
<!-- lyah12 -->
<g id="node12" class="node">
<title>lyah12</title>
<text text-anchor="middle" x="166" y="-389.8" font-family="Times,serif" font-size="14.00" fill="#000000">12. A Fistful of Monads</text>
</g>
<!-- lyah12&#45;&gt;lyah11 -->
<g id="edge3" class="edge">
<title>lyah12&#45;&gt;lyah11</title>
<path fill="none" stroke="#000000" d="M166,-412.107C166,-419.7917 166,-428.9728 166,-437.6855"/>
<polygon fill="#000000" stroke="#000000" points="162.5001,-437.9485 166,-447.9485 169.5001,-437.9485 162.5001,-437.9485"/>
</g>
<!-- lyah13 -->
<g id="node13" class="node">
<title>lyah13</title>
<text text-anchor="middle" x="116" y="-317.8" font-family="Times,serif" font-size="14.00" fill="#000000">13. For a Few Monads More</text>
</g>
<!-- lyah13&#45;&gt;lyah12 -->
<g id="edge2" class="edge">
<title>lyah13&#45;&gt;lyah12</title>
<path fill="none" stroke="#000000" d="M128.6171,-340.1686C134.3172,-348.3768 141.1663,-358.2394 147.4359,-367.2677"/>
<polygon fill="#000000" stroke="#000000" points="144.6342,-369.3694 153.213,-375.5867 150.3838,-365.3766 144.6342,-369.3694"/>
</g>
<!-- lyah14 -->
<g id="node14" class="node">
<title>lyah14</title>
<text text-anchor="middle" x="116" y="-245.8" font-family="Times,serif" font-size="14.00" fill="#000000">14. Zippers</text>
</g>
<!-- lyah14&#45;&gt;lyah13 -->
<g id="edge1" class="edge">
<title>lyah14&#45;&gt;lyah13</title>
<path fill="none" stroke="#000000" d="M116,-268.1686C116,-275.869 116,-285.0257 116,-293.5834"/>
<polygon fill="#000000" stroke="#000000" points="112.5001,-293.5867 116,-303.5867 119.5001,-293.5868 112.5001,-293.5867"/>
</g>
<!-- cis01 -->
<g id="node15" class="node">
<title>cis01</title>
<text text-anchor="middle" x="490" y="-847" font-family="Times,serif" font-size="14.00" fill="#66cd00">1. Introduction to Haskell</text>
</g>
<!-- cis01&#45;&gt;lyah02 -->
<g id="edge40" class="edge">
<title>cis01&#45;&gt;lyah02</title>
<path fill="none" stroke="#000000" d="M478.2365,-869.448C450.2619,-912.036 376.2327,-1020.0961 298,-1095.6 286.7494,-1106.4582 273.2263,-1116.9406 260.8355,-1125.7344"/>
<polygon fill="#000000" stroke="#000000" points="258.6975,-1122.9579 252.48,-1131.5366 262.6902,-1128.7076 258.6975,-1122.9579"/>
</g>
<!-- rwh01 -->
<g id="node27" class="node">
<title>rwh01</title>
<text text-anchor="middle" x="693" y="-1145.4" font-family="Times,serif" font-size="14.00" fill="#66cd00">1. Getting started</text>
</g>
<!-- cis01&#45;&gt;rwh01 -->
<g id="edge41" class="edge">
<title>cis01&#45;&gt;rwh01</title>
<path fill="none" stroke="#000000" d="M493.0024,-869.2557C499.1726,-902.3126 515.6801,-973.7393 550,-1023.6 579.0188,-1065.7592 625.1757,-1102.9711 657.1667,-1125.8232"/>
<polygon fill="#000000" stroke="#000000" points="655.1878,-1128.7103 665.3814,-1131.5987 659.2139,-1122.984 655.1878,-1128.7103"/>
</g>
<!-- rwh02 -->
<g id="node28" class="node">
<title>rwh02</title>
<text text-anchor="middle" x="701" y="-1073.4" font-family="Times,serif" font-size="14.00" fill="#66cd00">2. Types and functions</text>
</g>
<!-- cis01&#45;&gt;rwh02 -->
<g id="edge42" class="edge">
<title>cis01&#45;&gt;rwh02</title>
<path fill="none" stroke="#000000" d="M498.086,-869.2915C515.9513,-908.6473 559.1654,-1000.3707 584,-1023.6 598.261,-1036.9391 616.3987,-1047.4597 634.1116,-1055.533"/>
<polygon fill="#000000" stroke="#000000" points="632.7466,-1058.756 643.3128,-1059.5338 635.5378,-1052.3366 632.7466,-1058.756"/>
</g>
<!-- cis02 -->
<g id="node16" class="node">
<title>cis02</title>
<text text-anchor="middle" x="498" y="-772.2" font-family="Times,serif" font-size="14.00" fill="#66cd00">2. Algebraic Data Types</text>
</g>
<!-- cis02&#45;&gt;cis01 -->
<g id="edge24" class="edge">
<title>cis02&#45;&gt;cis01</title>
<path fill="none" stroke="#000000" d="M496.0634,-794.507C495.1563,-802.9888 494.0541,-813.2938 493.0396,-822.7796"/>
<polygon fill="#000000" stroke="#000000" points="489.5299,-822.685 491.9465,-833.0005 496.4902,-823.4294 489.5299,-822.685"/>
</g>
<!-- cis02&#45;&gt;rwh02 -->
<g id="edge43" class="edge">
<title>cis02&#45;&gt;rwh02</title>
<path fill="none" stroke="#000000" d="M537.6046,-794.555C552.6943,-803.3516 568.7172,-815.3189 579,-830.4 628.5023,-903.002 571.7066,-950.856 621,-1023.6 629.3249,-1035.8853 641.4642,-1046.1332 653.7824,-1054.283"/>
<polygon fill="#000000" stroke="#000000" points="651.9567,-1057.2692 662.2944,-1059.5893 655.6598,-1051.3289 651.9567,-1057.2692"/>
</g>
<!-- rwh03 -->
<g id="node29" class="node">
<title>rwh03</title>
<text text-anchor="middle" x="701" y="-1007" font-family="Times,serif" font-size="14.00" fill="#66cd00">3. Defining types,</text>
<text text-anchor="middle" x="701" y="-990.2" font-family="Times,serif" font-size="14.00" fill="#66cd00">streamlining functions</text>
</g>
<!-- cis02&#45;&gt;rwh03 -->
<g id="edge44" class="edge">
<title>cis02&#45;&gt;rwh03</title>
<path fill="none" stroke="#000000" d="M557.7985,-794.5174C577.181,-802.8452 597.4187,-814.5033 612,-830.4 649.0542,-870.7967 627.8377,-898.3857 655,-946 660.5749,-955.7726 667.806,-965.5892 674.8774,-974.2471"/>
<polygon fill="#000000" stroke="#000000" points="672.425,-976.768 681.5489,-982.1537 677.7749,-972.2538 672.425,-976.768"/>
</g>
<!-- cis03 -->
<g id="node17" class="node">
<title>cis03</title>
<text text-anchor="middle" x="488" y="-705.8" font-family="Times,serif" font-size="14.00" fill="#66cd00">3. Recursion patterns,</text>
<text text-anchor="middle" x="488" y="-689" font-family="Times,serif" font-size="14.00" fill="#66cd00">polymorphism, and the Prelude</text>
</g>
<!-- cis03&#45;&gt;cis02 -->
<g id="edge23" class="edge">
<title>cis03&#45;&gt;cis02</title>
<path fill="none" stroke="#000000" d="M490.7856,-722.436C491.8538,-730.4264 493.091,-739.6809 494.236,-748.2453"/>
<polygon fill="#000000" stroke="#000000" points="490.775,-748.7704 495.5693,-758.2184 497.7132,-747.8428 490.775,-748.7704"/>
</g>
<!-- cis04 -->
<g id="node18" class="node">
<title>cis04</title>
<text text-anchor="middle" x="483" y="-628.2" font-family="Times,serif" font-size="14.00" fill="#66cd00">4. Higher&#45;order programming</text>
<text text-anchor="middle" x="483" y="-611.4" font-family="Times,serif" font-size="14.00" fill="#66cd00">and type inference</text>
</g>
<!-- cis04&#45;&gt;lyah06 -->
<g id="edge45" class="edge">
<title>cis04&#45;&gt;lyah06</title>
<path fill="none" stroke="#000000" d="M431.321,-644.6739C414.0843,-653.6482 395.985,-665.633 383,-680.8 347.8909,-721.8087 377.3143,-755.3871 340,-794.4 325.4771,-809.584 306.2237,-820.9248 286.9239,-829.3079"/>
<polygon fill="#000000" stroke="#000000" points="285.3886,-826.1546 277.4663,-833.1894 288.0464,-832.6304 285.3886,-826.1546"/>
</g>
<!-- cis04&#45;&gt;cis03 -->
<g id="edge22" class="edge">
<title>cis04&#45;&gt;cis03</title>
<path fill="none" stroke="#000000" d="M484.3399,-644.7954C484.8499,-652.7109 485.4427,-661.9109 486.0008,-670.5722"/>
<polygon fill="#000000" stroke="#000000" points="482.5205,-670.993 486.6564,-680.7472 489.5061,-670.5428 482.5205,-670.993"/>
</g>
<!-- cis05 -->
<g id="node19" class="node">
<title>cis05</title>
<text text-anchor="middle" x="488" y="-550.6" font-family="Times,serif" font-size="14.00" fill="#66cd00">5. More polymorphism and</text>
<text text-anchor="middle" x="488" y="-533.8" font-family="Times,serif" font-size="14.00" fill="#66cd00">type classes</text>
</g>
<!-- cis05&#45;&gt;cis04 -->
<g id="edge21" class="edge">
<title>cis05&#45;&gt;cis04</title>
<path fill="none" stroke="#000000" d="M486.6601,-567.1954C486.1501,-575.1109 485.5573,-584.3109 484.9992,-592.9722"/>
<polygon fill="#000000" stroke="#000000" points="481.4939,-592.9428 484.3436,-603.1472 488.4795,-593.393 481.4939,-592.9428"/>
</g>
<!-- cis06 -->
<g id="node20" class="node">
<title>cis06</title>
<text text-anchor="middle" x="486" y="-464.6" font-family="Times,serif" font-size="14.00" fill="#000000">6. Lazy evaluation</text>
</g>
<!-- cis06&#45;&gt;cis05 -->
<g id="edge20" class="edge">
<title>cis06&#45;&gt;cis05</title>
<path fill="none" stroke="#000000" d="M486.474,-487.1901C486.6928,-495.6819 486.9587,-505.9971 487.2068,-515.6234"/>
<polygon fill="#000000" stroke="#000000" points="483.7094,-515.773 487.466,-525.6795 490.7071,-515.5926 483.7094,-515.773"/>
</g>
<!-- cis07 -->
<g id="node21" class="node">
<title>cis07</title>
<text text-anchor="middle" x="480" y="-389.8" font-family="Times,serif" font-size="14.00" fill="#000000">7. Folds and monoids</text>
</g>
<!-- cis07&#45;&gt;lyah06 -->
<g id="edge46" class="edge">
<title>cis07&#45;&gt;lyah06</title>
<path fill="none" stroke="#000000" d="M453.5961,-412.22C441.2435,-421.7635 427.0715,-434.3064 417,-448 338.3447,-554.9435 363.8776,-606.5791 299,-722.4 278.0828,-759.7419 248.778,-799.5073 229.1295,-824.8116"/>
<polygon fill="#000000" stroke="#000000" points="226.2725,-822.7832 222.8624,-832.8143 231.7837,-827.0992 226.2725,-822.7832"/>
</g>
<!-- cis07&#45;&gt;lyah11 -->
<g id="edge47" class="edge">
<title>cis07&#45;&gt;lyah11</title>
<path fill="none" stroke="#000000" d="M411.8667,-410.2305C368.1616,-420.6418 310.757,-434.3165 262.4082,-445.834"/>
<polygon fill="#000000" stroke="#000000" points="261.4685,-442.4598 252.5518,-448.1819 263.0907,-449.2693 261.4685,-442.4598"/>
</g>
<!-- cis07&#45;&gt;cis06 -->
<g id="edge19" class="edge">
<title>cis07&#45;&gt;cis06</title>
<path fill="none" stroke="#000000" d="M481.4524,-412.107C482.1328,-420.5888 482.9594,-430.8938 483.7203,-440.3796"/>
<polygon fill="#000000" stroke="#000000" points="480.2517,-440.9124 484.5401,-450.6005 487.2293,-440.3526 480.2517,-440.9124"/>
</g>
<!-- cis08 -->
<g id="node22" class="node">
<title>cis08</title>
<text text-anchor="middle" x="477" y="-317.8" font-family="Times,serif" font-size="14.00" fill="#000000">8. IO</text>
</g>
<!-- cis08&#45;&gt;lyah09 -->
<g id="edge48" class="edge">
<title>cis08&#45;&gt;lyah09</title>
<path fill="none" stroke="#000000" d="M449.8303,-338.4122C434.9702,-348.188 416.8277,-361.496 403,-376 332.7751,-449.6592 353.5089,-500.0911 277,-567.2 260.8075,-581.403 240.4374,-592.9078 221.2513,-601.7532"/>
<polygon fill="#000000" stroke="#000000" points="219.6708,-598.6254 211.9512,-605.882 222.5112,-605.0232 219.6708,-598.6254"/>
</g>
<!-- cis08&#45;&gt;cis07 -->
<g id="edge18" class="edge">
<title>cis08&#45;&gt;cis07</title>
<path fill="none" stroke="#000000" d="M477.757,-340.1686C478.0779,-347.869 478.4594,-357.0257 478.816,-365.5834"/>
<polygon fill="#000000" stroke="#000000" points="475.3194,-365.7411 479.2328,-375.5867 482.3133,-365.4497 475.3194,-365.7411"/>
</g>
<!-- rwh07 -->
<g id="node33" class="node">
<title>rwh07</title>
<text text-anchor="middle" x="741" y="-697.4" font-family="Times,serif" font-size="14.00" fill="#000000">7. Input and output</text>
</g>
<!-- cis08&#45;&gt;rwh07 -->
<g id="edge49" class="edge">
<title>cis08&#45;&gt;rwh07</title>
<path fill="none" stroke="#000000" d="M504.3193,-333.9203C521.9428,-342.9852 543.9355,-357.1231 557,-376 626.8874,-476.9808 543.6633,-549.404 621,-644.8 633.7898,-660.5764 651.9915,-672.2216 670.3645,-680.7104"/>
<polygon fill="#000000" stroke="#000000" points="669.0994,-683.9767 679.6662,-684.7474 671.8863,-677.5554 669.0994,-683.9767"/>
</g>
<!-- cis09 -->
<g id="node23" class="node">
<title>cis09</title>
<text text-anchor="middle" x="474" y="-245.8" font-family="Times,serif" font-size="14.00" fill="#000000">9. Functors</text>
</g>
<!-- cis09&#45;&gt;lyah08 -->
<g id="edge50" class="edge">
<title>cis09&#45;&gt;lyah08</title>
<path fill="none" stroke="#000000" d="M456.6604,-268.1297C434.7019,-291.6937 396.5363,-334.7245 370,-376 297.3771,-488.9601 320.3003,-543.6213 232,-644.8 221.4479,-656.8911 208.0095,-668.198 195.5464,-677.4905"/>
<polygon fill="#000000" stroke="#000000" points="193.1712,-674.889 187.1214,-683.5867 197.2747,-680.5601 193.1712,-674.889"/>
</g>
<!-- cis09&#45;&gt;cis08 -->
<g id="edge17" class="edge">
<title>cis09&#45;&gt;cis08</title>
<path fill="none" stroke="#000000" d="M474.757,-268.1686C475.0779,-275.869 475.4594,-285.0257 475.816,-293.5834"/>
<polygon fill="#000000" stroke="#000000" points="472.3194,-293.7411 476.2328,-303.5867 479.3133,-293.4497 472.3194,-293.7411"/>
</g>
<!-- cis10 -->
<g id="node24" class="node">
<title>cis10</title>
<text text-anchor="middle" x="474" y="-173.8" font-family="Times,serif" font-size="14.00" fill="#000000">10. Applicative functors II</text>
</g>
<!-- cis10&#45;&gt;lyah11 -->
<g id="edge51" class="edge">
<title>cis10&#45;&gt;lyah11</title>
<path fill="none" stroke="#000000" d="M447.3419,-196.19C416.2385,-218.5338 364.8886,-259.0462 332,-304 300.9849,-346.3931 320.5736,-374.2974 284,-412 271.2441,-425.1497 254.8276,-435.6488 238.3187,-443.8631"/>
<polygon fill="#000000" stroke="#000000" points="236.7043,-440.7548 229.1603,-448.1938 239.6968,-447.083 236.7043,-440.7548"/>
</g>
<!-- cis10&#45;&gt;cis09 -->
<g id="edge16" class="edge">
<title>cis10&#45;&gt;cis09</title>
<path fill="none" stroke="#000000" d="M474,-196.1686C474,-203.869 474,-213.0257 474,-221.5834"/>
<polygon fill="#000000" stroke="#000000" points="470.5001,-221.5867 474,-231.5867 477.5001,-221.5868 470.5001,-221.5867"/>
</g>
<!-- cis11 -->
<g id="node25" class="node">
<title>cis11</title>
<text text-anchor="middle" x="474" y="-101.8" font-family="Times,serif" font-size="14.00" fill="#000000">11. Applicative functors I</text>
</g>
<!-- cis11&#45;&gt;lyah11 -->
<g id="edge52" class="edge">
<title>cis11&#45;&gt;lyah11</title>
<path fill="none" stroke="#000000" d="M404.0802,-124.0824C345.0263,-144.0655 270,-182.697 270,-250 270,-250 270,-250 270,-322 270,-362.9758 273.0503,-378.1223 250,-412 241.8717,-423.9464 230.3207,-434.0711 218.3774,-442.3142"/>
<polygon fill="#000000" stroke="#000000" points="216.1323,-439.5991 209.6547,-447.9831 219.9468,-445.4684 216.1323,-439.5991"/>
</g>
<!-- cis11&#45;&gt;cis10 -->
<g id="edge15" class="edge">
<title>cis11&#45;&gt;cis10</title>
<path fill="none" stroke="#000000" d="M474,-124.1686C474,-131.869 474,-141.0257 474,-149.5834"/>
<polygon fill="#000000" stroke="#000000" points="470.5001,-149.5867 474,-159.5867 477.5001,-149.5868 470.5001,-149.5867"/>
</g>
<!-- cis12 -->
<g id="node26" class="node">
<title>cis12</title>
<text text-anchor="middle" x="508" y="-29.8" font-family="Times,serif" font-size="14.00" fill="#000000">12. Monads</text>
</g>
<!-- cis12&#45;&gt;lyah09 -->
<g id="edge53" class="edge">
<title>cis12&#45;&gt;lyah09</title>
<path fill="none" stroke="#000000" d="M466.8585,-36.7861C345.9212,-46.0924 0,-81.1743 0,-178 0,-178 0,-178 0,-468.8 0,-517.266 13.0767,-532.5856 47,-567.2 61.1343,-581.6223 79.6971,-593.0128 97.6823,-601.6886"/>
<polygon fill="#000000" stroke="#000000" points="96.4607,-604.9792 107.0082,-605.9796 99.3868,-598.62 96.4607,-604.9792"/>
</g>
<!-- cis12&#45;&gt;lyah12 -->
<g id="edge54" class="edge">
<title>cis12&#45;&gt;lyah12</title>
<path fill="none" stroke="#000000" d="M466.68,-36.858C389.6853,-44.6651 232,-73.4203 232,-178 232,-178 232,-178 232,-250 232,-290.8816 231.2273,-303.4066 213,-340 207.9089,-350.2211 200.4184,-360.0609 192.9066,-368.4767"/>
<polygon fill="#000000" stroke="#000000" points="190.352,-366.0841 186.0701,-375.7752 195.4608,-370.8695 190.352,-366.0841"/>
</g>
<!-- cis12&#45;&gt;cis11 -->
<g id="edge14" class="edge">
<title>cis12&#45;&gt;cis11</title>
<path fill="none" stroke="#000000" d="M499.4204,-52.1686C495.6642,-60.1229 491.1743,-69.631 487.0202,-78.4277"/>
<polygon fill="#000000" stroke="#000000" points="483.8004,-77.0497 482.6952,-87.5867 490.1301,-80.0388 483.8004,-77.0497"/>
</g>
<!-- cis12&#45;&gt;rwh07 -->
<g id="edge55" class="edge">
<title>cis12&#45;&gt;rwh07</title>
<path fill="none" stroke="#000000" d="M549.2881,-40.8513C635.4457,-55.1634 826.5707,-86.9985 828,-88 865.6521,-114.3837 879,-132.0242 879,-178 879,-178 879,-178 879,-546.4 879,-591.0275 886.4094,-609.5815 859,-644.8 846.871,-660.3847 829.3883,-671.9326 811.5813,-680.389"/>
<polygon fill="#000000" stroke="#000000" points="809.9795,-677.2708 802.2664,-684.5343 812.8256,-683.6661 809.9795,-677.2708"/>
</g>
<!-- rwh14 -->
<g id="node40" class="node">
<title>rwh14</title>
<text text-anchor="middle" x="724" y="-173.8" font-family="Times,serif" font-size="14.00" fill="#000000">14. Monads</text>
</g>
<!-- cis12&#45;&gt;rwh14 -->
<g id="edge56" class="edge">
<title>cis12&#45;&gt;rwh14</title>
<path fill="none" stroke="#000000" d="M528.12,-52.209C549.8498,-71.3751 585.9434,-101.7886 620,-124 637.4133,-135.3568 657.4959,-146.2512 675.3422,-155.2428"/>
<polygon fill="#000000" stroke="#000000" points="673.9317,-158.4501 684.4448,-159.7637 677.0455,-152.1808 673.9317,-158.4501"/>
</g>
<!-- rwh15 -->
<g id="node41" class="node">
<title>rwh15</title>
<text text-anchor="middle" x="724" y="-101.8" font-family="Times,serif" font-size="14.00" fill="#000000">15. Programming with monads</text>
</g>
<!-- cis12&#45;&gt;rwh15 -->
<g id="edge57" class="edge">
<title>cis12&#45;&gt;rwh15</title>
<path fill="none" stroke="#000000" d="M549.1364,-47.7121C580.4639,-58.1546 624.1661,-72.722 660.0433,-84.6811"/>
<polygon fill="#000000" stroke="#000000" points="659.3446,-88.1375 669.9382,-87.9794 661.5582,-81.4967 659.3446,-88.1375"/>
</g>
<!-- rwh02&#45;&gt;rwh01 -->
<g id="edge39" class="edge">
<title>rwh02&#45;&gt;rwh01</title>
<path fill="none" stroke="#000000" d="M698.9813,-1095.7686C698.1257,-1103.469 697.1083,-1112.6257 696.1574,-1121.1834"/>
<polygon fill="#000000" stroke="#000000" points="692.6717,-1120.8614 695.0459,-1131.1867 699.6289,-1121.6344 692.6717,-1120.8614"/>
</g>
<!-- rwh03&#45;&gt;rwh02 -->
<g id="edge38" class="edge">
<title>rwh03&#45;&gt;rwh02</title>
<path fill="none" stroke="#000000" d="M701,-1023.636C701,-1031.5386 701,-1040.6777 701,-1049.1627"/>
<polygon fill="#000000" stroke="#000000" points="697.5001,-1049.4184 701,-1059.4184 704.5001,-1049.4184 697.5001,-1049.4184"/>
</g>
<!-- rwh04 -->
<g id="node30" class="node">
<title>rwh04</title>
<text text-anchor="middle" x="749" y="-923.8" font-family="Times,serif" font-size="14.00" fill="#ffa500">4. Functional programming</text>
</g>
<!-- rwh04&#45;&gt;rwh03 -->
<g id="edge37" class="edge">
<title>rwh04&#45;&gt;rwh03</title>
<path fill="none" stroke="#000000" d="M737.3805,-946.107C732.1241,-954.2984 725.7765,-964.19 719.8649,-973.4022"/>
<polygon fill="#000000" stroke="#000000" points="716.8358,-971.642 714.3806,-981.9485 722.7271,-975.4226 716.8358,-971.642"/>
</g>
<!-- rwh05 -->
<g id="node31" class="node">
<title>rwh05</title>
<text text-anchor="middle" x="746" y="-855.4" font-family="Times,serif" font-size="14.00" fill="#000000">5. Writing a library:</text>
<text text-anchor="middle" x="746" y="-838.6" font-family="Times,serif" font-size="14.00" fill="#000000">working with JSON data</text>
</g>
<!-- rwh05&#45;&gt;rwh04 -->
<g id="edge36" class="edge">
<title>rwh05&#45;&gt;rwh04</title>
<path fill="none" stroke="#000000" d="M746.8198,-872.1859C747.1514,-880.677 747.5394,-890.6093 747.8954,-899.7225"/>
<polygon fill="#000000" stroke="#000000" points="744.4056,-900.0531 748.2933,-909.9089 751.4002,-899.7798 744.4056,-900.0531"/>
</g>
<!-- rwh06 -->
<g id="node32" class="node">
<title>rwh06</title>
<text text-anchor="middle" x="744" y="-772.2" font-family="Times,serif" font-size="14.00" fill="#000000">6. Using typeclasses</text>
</g>
<!-- rwh06&#45;&gt;rwh05 -->
<g id="edge35" class="edge">
<title>rwh06&#45;&gt;rwh05</title>
<path fill="none" stroke="#000000" d="M744.4841,-794.507C744.6896,-802.1917 744.9351,-811.3728 745.1681,-820.0855"/>
<polygon fill="#000000" stroke="#000000" points="741.6763,-820.4457 745.4425,-830.3485 748.6738,-820.2585 741.6763,-820.4457"/>
</g>
<!-- rwh07&#45;&gt;rwh06 -->
<g id="edge34" class="edge">
<title>rwh07&#45;&gt;rwh06</title>
<path fill="none" stroke="#000000" d="M741.7262,-719.707C742.0664,-728.1888 742.4797,-738.4938 742.8601,-747.9796"/>
<polygon fill="#000000" stroke="#000000" points="739.372,-748.3488 743.2701,-758.2005 746.3664,-748.0682 739.372,-748.3488"/>
</g>
<!-- rwh08 -->
<g id="node34" class="node">
<title>rwh08</title>
<text text-anchor="middle" x="740" y="-628.2" font-family="Times,serif" font-size="14.00" fill="#000000">8. Efficient file processing, regular</text>
<text text-anchor="middle" x="740" y="-611.4" font-family="Times,serif" font-size="14.00" fill="#000000">expressions, and file name matching</text>
</g>
<!-- rwh08&#45;&gt;rwh07 -->
<g id="edge33" class="edge">
<title>rwh08&#45;&gt;rwh07</title>
<path fill="none" stroke="#000000" d="M740.268,-644.7954C740.3806,-653.5372 740.5135,-663.8458 740.6349,-673.2651"/>
<polygon fill="#000000" stroke="#000000" points="737.1367,-673.4369 740.7653,-683.3909 744.1361,-673.3466 737.1367,-673.4369"/>
</g>
<!-- rwh09 -->
<g id="node35" class="node">
<title>rwh09</title>
<text text-anchor="middle" x="740" y="-550.6" font-family="Times,serif" font-size="14.00" fill="#000000">9. I/O case study:</text>
<text text-anchor="middle" x="740" y="-533.8" font-family="Times,serif" font-size="14.00" fill="#000000">a library for searching the filesystem</text>
</g>
<!-- rwh09&#45;&gt;rwh08 -->
<g id="edge32" class="edge">
<title>rwh09&#45;&gt;rwh08</title>
<path fill="none" stroke="#000000" d="M740,-567.1954C740,-575.1109 740,-584.3109 740,-592.9722"/>
<polygon fill="#000000" stroke="#000000" points="736.5001,-593.1472 740,-603.1472 743.5001,-593.1473 736.5001,-593.1472"/>
</g>
<!-- rwh10 -->
<g id="node36" class="node">
<title>rwh10</title>
<text text-anchor="middle" x="739" y="-473" font-family="Times,serif" font-size="14.00" fill="#000000">10. Code case study:</text>
<text text-anchor="middle" x="739" y="-456.2" font-family="Times,serif" font-size="14.00" fill="#000000">parsing a binary data format</text>
</g>
<!-- rwh10&#45;&gt;rwh09 -->
<g id="edge31" class="edge">
<title>rwh10&#45;&gt;rwh09</title>
<path fill="none" stroke="#000000" d="M739.268,-489.5954C739.37,-497.5109 739.4885,-506.7109 739.6002,-515.3722"/>
<polygon fill="#000000" stroke="#000000" points="736.1026,-515.5932 739.7313,-525.5472 743.102,-515.5029 736.1026,-515.5932"/>
</g>
<!-- rwh11 -->
<g id="node37" class="node">
<title>rwh11</title>
<text text-anchor="middle" x="735" y="-389.8" font-family="Times,serif" font-size="14.00" fill="#000000">11. Testing and quality assurance</text>
</g>
<!-- rwh11&#45;&gt;rwh10 -->
<g id="edge30" class="edge">
<title>rwh11&#45;&gt;rwh10</title>
<path fill="none" stroke="#000000" d="M735.9683,-412.107C736.3792,-419.7917 736.8702,-428.9728 737.3361,-437.6855"/>
<polygon fill="#000000" stroke="#000000" points="733.8559,-438.1497 737.8849,-447.9485 740.8459,-437.7758 733.8559,-438.1497"/>
</g>
<!-- rwh12 -->
<g id="node38" class="node">
<title>rwh12</title>
<text text-anchor="middle" x="729" y="-317.8" font-family="Times,serif" font-size="14.00" fill="#000000">12. Barcode recognition</text>
</g>
<!-- rwh12&#45;&gt;rwh11 -->
<g id="edge29" class="edge">
<title>rwh12&#45;&gt;rwh11</title>
<path fill="none" stroke="#000000" d="M730.5141,-340.1686C731.1558,-347.869 731.9188,-357.0257 732.6319,-365.5834"/>
<polygon fill="#000000" stroke="#000000" points="729.1471,-365.912 733.4656,-375.5867 736.1229,-365.3306 729.1471,-365.912"/>
</g>
<!-- rwh13 -->
<g id="node39" class="node">
<title>rwh13</title>
<text text-anchor="middle" x="726" y="-245.8" font-family="Times,serif" font-size="14.00" fill="#000000">13. Data structures</text>
</g>
<!-- rwh13&#45;&gt;rwh12 -->
<g id="edge28" class="edge">
<title>rwh13&#45;&gt;rwh12</title>
<path fill="none" stroke="#000000" d="M726.757,-268.1686C727.0779,-275.869 727.4594,-285.0257 727.816,-293.5834"/>
<polygon fill="#000000" stroke="#000000" points="724.3194,-293.7411 728.2328,-303.5867 731.3133,-293.4497 724.3194,-293.7411"/>
</g>
<!-- rwh14&#45;&gt;rwh13 -->
<g id="edge27" class="edge">
<title>rwh14&#45;&gt;rwh13</title>
<path fill="none" stroke="#000000" d="M724.5047,-196.1686C724.7186,-203.869 724.9729,-213.0257 725.2106,-221.5834"/>
<polygon fill="#000000" stroke="#000000" points="721.7121,-221.6878 725.4885,-231.5867 728.7094,-221.4934 721.7121,-221.6878"/>
</g>
<!-- rwh15&#45;&gt;rwh14 -->
<g id="edge26" class="edge">
<title>rwh15&#45;&gt;rwh14</title>
<path fill="none" stroke="#000000" d="M724,-124.1686C724,-131.869 724,-141.0257 724,-149.5834"/>
<polygon fill="#000000" stroke="#000000" points="720.5001,-149.5867 724,-159.5867 727.5001,-149.5868 720.5001,-149.5867"/>
</g>
<!-- ... -->
<g id="node42" class="node">
<title>...</title>
<text text-anchor="middle" x="724" y="-29.8" font-family="Times,serif" font-size="14.00" fill="#000000">...</text>
</g>
<!-- ...&#45;&gt;rwh15 -->
<g id="edge25" class="edge">
<title>...&#45;&gt;rwh15</title>
<path fill="none" stroke="#000000" d="M724,-52.1686C724,-59.869 724,-69.0257 724,-77.5834"/>
<polygon fill="#000000" stroke="#000000" points="720.5001,-77.5867 724,-87.5867 727.5001,-77.5868 720.5001,-77.5867"/>
</g>
</g>
</svg>