<?xml version="1.0" encoding="UTF-8" standalone="no"?>
<!DOCTYPE svg PUBLIC "-//W3C//DTD SVG 1.1//EN"
 "http://www.w3.org/Graphics/SVG/1.1/DTD/svg11.dtd">
<!-- Generated by graphviz version 2.40.1 (20161225.0304)
 -->
<!-- Title: learnHaskell Pages: 1 -->
<svg width="854pt" height="1293pt"
 viewBox="0.00 0.00 853.85 1293.20" xmlns="http://www.w3.org/2000/svg" xmlns:xlink="http://www.w3.org/1999/xlink">
<g id="graph0" class="graph" transform="scale(1 1) rotate(0) translate(4 1289.2)">
<title>learnHaskell</title>
<polygon fill="#ffffff" stroke="transparent" points="-4,4 -4,-1289.2 849.8523,-1289.2 849.8523,4 -4,4"/>
<g id="clust1" class="cluster">
<title>cluster_0</title>
<polygon fill="none" stroke="#006400" points="20,-224 20,-1277.2 284,-1277.2 284,-224 20,-224"/>
<text text-anchor="middle" x="152" y="-1260.6" font-family="Times,serif" font-size="14.00" fill="#000000">Learn You a Haskell for Great Good!</text>
</g>
<g id="clust2" class="cluster">
<title>cluster_1</title>
<polygon fill="none" stroke="#ff0000" points="363,-8 363,-902 571,-902 571,-8 363,-8"/>
<text text-anchor="middle" x="467" y="-885.4" font-family="Times,serif" font-size="14.00" fill="#000000">CIS 194</text>
</g>
<g id="clust3" class="cluster">
<title>cluster_2</title>
<polygon fill="none" stroke="#0000ff" points="586,-8 586,-1200.4 824,-1200.4 824,-8 586,-8"/>
<text text-anchor="middle" x="705" y="-1183.8" font-family="Times,serif" font-size="14.00" fill="#000000">Real World Haskell</text>
</g>
<!-- lyah01 -->
<g id="node1" class="node">
<title>lyah01</title>
<text text-anchor="middle" x="217" y="-1222.2" font-family="Times,serif" font-size="14.00" fill="#66cd00">Introduction</text>
</g>
<!-- lyah02 -->
<g id="node2" class="node">
<title>lyah02</title>
<text text-anchor="middle" x="217" y="-1145.4" font-family="Times,serif" font-size="14.00" fill="#66cd00">Starting Out</text>
</g>
<!-- lyah02&#45;&gt;lyah01 -->
<g id="edge13" class="edge">
<title>lyah02&#45;&gt;lyah01</title>
<path fill="none" stroke="#000000" d="M217,-1167.8005C217,-1176.8868 217,-1188.0824 217,-1198.2451"/>
<polygon fill="#000000" stroke="#000000" points="213.5001,-1198.3301 217,-1208.3301 220.5001,-1198.3302 213.5001,-1198.3301"/>
</g>
<!-- lyah03 -->
<g id="node3" class="node">
<title>lyah03</title>
<text text-anchor="middle" x="202" y="-1073.4" font-family="Times,serif" font-size="14.00" fill="#66cd00">Types and Typeclasses</text>
</g>
<!-- lyah03&#45;&gt;lyah02 -->
<g id="edge12" class="edge">
<title>lyah03&#45;&gt;lyah02</title>
<path fill="none" stroke="#000000" d="M205.7851,-1095.7686C207.3894,-1103.469 209.297,-1112.6257 211.0799,-1121.1834"/>
<polygon fill="#000000" stroke="#000000" points="207.6979,-1122.1108 213.1639,-1131.1867 214.5507,-1120.6831 207.6979,-1122.1108"/>
</g>
<!-- lyah04 -->
<g id="node4" class="node">
<title>lyah04</title>
<text text-anchor="middle" x="202" y="-998.6" font-family="Times,serif" font-size="14.00" fill="#66cd00">Syntax in Functions</text>
</g>
<!-- lyah04&#45;&gt;lyah03 -->
<g id="edge11" class="edge">
<title>lyah04&#45;&gt;lyah03</title>
<path fill="none" stroke="#000000" d="M202,-1020.907C202,-1029.3888 202,-1039.6938 202,-1049.1796"/>
<polygon fill="#000000" stroke="#000000" points="198.5001,-1049.4005 202,-1059.4005 205.5001,-1049.4005 198.5001,-1049.4005"/>
</g>
<!-- lyah05 -->
<g id="node5" class="node">
<title>lyah05</title>
<text text-anchor="middle" x="201" y="-923.8" font-family="Times,serif" font-size="14.00" fill="#66cd00">Recursion</text>
</g>
<!-- lyah05&#45;&gt;lyah04 -->
<g id="edge10" class="edge">
<title>lyah05&#45;&gt;lyah04</title>
<path fill="none" stroke="#000000" d="M201.2421,-946.107C201.3555,-954.5888 201.4932,-964.8938 201.62,-974.3796"/>
<polygon fill="#000000" stroke="#000000" points="198.1232,-974.6482 201.7567,-984.6005 205.1226,-974.5546 198.1232,-974.6482"/>
</g>
<!-- lyah06 -->
<g id="node6" class="node">
<title>lyah06</title>
<text text-anchor="middle" x="201" y="-847" font-family="Times,serif" font-size="14.00" fill="#66cd00">Higher Order Functions</text>
</g>
<!-- lyah06&#45;&gt;lyah05 -->
<g id="edge9" class="edge">
<title>lyah06&#45;&gt;lyah05</title>
<path fill="none" stroke="#000000" d="M201,-869.4005C201,-878.4868 201,-889.6824 201,-899.8451"/>
<polygon fill="#000000" stroke="#000000" points="197.5001,-899.9301 201,-909.9301 204.5001,-899.9302 197.5001,-899.9301"/>
</g>
<!-- lyah07 -->
<g id="node7" class="node">
<title>lyah07</title>
<text text-anchor="middle" x="177" y="-772.2" font-family="Times,serif" font-size="14.00" fill="#000000">Modules</text>
</g>
<!-- lyah07&#45;&gt;lyah06 -->
<g id="edge8" class="edge">
<title>lyah07&#45;&gt;lyah06</title>
<path fill="none" stroke="#000000" d="M182.8097,-794.507C185.5897,-803.1713 188.9801,-813.7378 192.0771,-823.3904"/>
<polygon fill="#000000" stroke="#000000" points="188.7727,-824.5479 195.1606,-833.0005 195.438,-822.4093 188.7727,-824.5479"/>
</g>
<!-- lyah08 -->
<g id="node8" class="node">
<title>lyah08</title>
<text text-anchor="middle" x="152" y="-697.4" font-family="Times,serif" font-size="14.00" fill="#000000">Making Our Own Types and Typeclasses</text>
</g>
<!-- lyah08&#45;&gt;lyah07 -->
<g id="edge7" class="edge">
<title>lyah08&#45;&gt;lyah07</title>
<path fill="none" stroke="#000000" d="M158.0518,-719.707C160.9476,-728.3713 164.4792,-738.9378 167.7053,-748.5904"/>
<polygon fill="#000000" stroke="#000000" points="164.4278,-749.8257 170.9173,-758.2005 171.0668,-747.6067 164.4278,-749.8257"/>
</g>
<!-- lyah09 -->
<g id="node9" class="node">
<title>lyah09</title>
<text text-anchor="middle" x="153" y="-619.8" font-family="Times,serif" font-size="14.00" fill="#000000">Input and Output</text>
</g>
<!-- lyah09&#45;&gt;lyah08 -->
<g id="edge6" class="edge">
<title>lyah09&#45;&gt;lyah08</title>
<path fill="none" stroke="#000000" d="M152.763,-642.3901C152.6447,-651.571 152.4989,-662.8833 152.3666,-673.1518"/>
<polygon fill="#000000" stroke="#000000" points="148.8645,-673.2976 152.2353,-683.3419 155.8639,-673.3879 148.8645,-673.2976"/>
</g>
<!-- lyah10 -->
<g id="node10" class="node">
<title>lyah10</title>
<text text-anchor="middle" x="154" y="-542.2" font-family="Times,serif" font-size="14.00" fill="#000000">Functionally Solving Problems</text>
</g>
<!-- lyah10&#45;&gt;lyah09 -->
<g id="edge5" class="edge">
<title>lyah10&#45;&gt;lyah09</title>
<path fill="none" stroke="#000000" d="M153.763,-564.7901C153.6447,-573.971 153.4989,-585.2833 153.3666,-595.5518"/>
<polygon fill="#000000" stroke="#000000" points="149.8645,-595.6976 153.2353,-605.7419 156.8639,-595.7879 149.8645,-595.6976"/>
</g>
<!-- lyah11 -->
<g id="node11" class="node">
<title>lyah11</title>
<text text-anchor="middle" x="155" y="-473" font-family="Times,serif" font-size="14.00" fill="#000000">Functors, Applicative Functors</text>
<text text-anchor="middle" x="155" y="-456.2" font-family="Times,serif" font-size="14.00" fill="#000000">and Monoids</text>
</g>
<!-- lyah11&#45;&gt;lyah10 -->
<g id="edge4" class="edge">
<title>lyah11&#45;&gt;lyah10</title>
<path fill="none" stroke="#000000" d="M154.732,-489.5954C154.6194,-498.3372 154.4865,-508.6458 154.3651,-518.0651"/>
<polygon fill="#000000" stroke="#000000" points="150.8639,-518.1466 154.2347,-528.1909 157.8633,-518.2369 150.8639,-518.1466"/>
</g>
<!-- lyah12 -->
<g id="node12" class="node">
<title>lyah12</title>
<text text-anchor="middle" x="155" y="-389.8" font-family="Times,serif" font-size="14.00" fill="#000000">A Fistful of Monads</text>
</g>
<!-- lyah12&#45;&gt;lyah11 -->
<g id="edge3" class="edge">
<title>lyah12&#45;&gt;lyah11</title>
<path fill="none" stroke="#000000" d="M155,-412.107C155,-419.7917 155,-428.9728 155,-437.6855"/>
<polygon fill="#000000" stroke="#000000" points="151.5001,-437.9485 155,-447.9485 158.5001,-437.9485 151.5001,-437.9485"/>
</g>
<!-- lyah13 -->
<g id="node13" class="node">
<title>lyah13</title>
<text text-anchor="middle" x="106" y="-317.8" font-family="Times,serif" font-size="14.00" fill="#000000">For a Few Monads More</text>
</g>
<!-- lyah13&#45;&gt;lyah12 -->
<g id="edge2" class="edge">
<title>lyah13&#45;&gt;lyah12</title>
<path fill="none" stroke="#000000" d="M118.3648,-340.1686C123.9509,-348.3768 130.663,-358.2394 136.8072,-367.2677"/>
<polygon fill="#000000" stroke="#000000" points="133.949,-369.2888 142.4687,-375.5867 139.736,-365.3504 133.949,-369.2888"/>
</g>
<!-- lyah14 -->
<g id="node14" class="node">
<title>lyah14</title>
<text text-anchor="middle" x="106" y="-245.8" font-family="Times,serif" font-size="14.00" fill="#000000">Zippers</text>
</g>
<!-- lyah14&#45;&gt;lyah13 -->
<g id="edge1" class="edge">
<title>lyah14&#45;&gt;lyah13</title>
<path fill="none" stroke="#000000" d="M106,-268.1686C106,-275.869 106,-285.0257 106,-293.5834"/>
<polygon fill="#000000" stroke="#000000" points="102.5001,-293.5867 106,-303.5867 109.5001,-293.5868 102.5001,-293.5867"/>
</g>
<!-- cis01 -->
<g id="node15" class="node">
<title>cis01</title>
<text text-anchor="middle" x="464" y="-847" font-family="Times,serif" font-size="14.00" fill="#66cd00">Introduction to Haskell</text>
</g>
<!-- cis01&#45;&gt;lyah02 -->
<g id="edge40" class="edge">
<title>cis01&#45;&gt;lyah02</title>
<path fill="none" stroke="#000000" d="M452.9835,-869.2853C426.7824,-911.5265 357.4297,-1018.8994 284,-1095.6 273.8576,-1106.1942 261.641,-1116.6043 250.4327,-1125.4134"/>
<polygon fill="#000000" stroke="#000000" points="248.2829,-1122.6513 242.4936,-1131.5246 252.5528,-1128.1983 248.2829,-1122.6513"/>
</g>
<!-- rwh01 -->
<g id="node27" class="node">
<title>rwh01</title>
<text text-anchor="middle" x="651" y="-1145.4" font-family="Times,serif" font-size="14.00" fill="#66cd00">Getting started</text>
</g>
<!-- cis01&#45;&gt;rwh01 -->
<g id="edge41" class="edge">
<title>cis01&#45;&gt;rwh01</title>
<path fill="none" stroke="#000000" d="M466.5964,-869.4C471.9653,-902.3838 486.602,-973.2784 519,-1023.6 545.4926,-1064.7491 588.0766,-1102.1167 617.6856,-1125.2832"/>
<polygon fill="#000000" stroke="#000000" points="615.6105,-1128.1028 625.6686,-1131.4321 619.882,-1122.5571 615.6105,-1128.1028"/>
</g>
<!-- rwh02 -->
<g id="node28" class="node">
<title>rwh02</title>
<text text-anchor="middle" x="659" y="-1073.4" font-family="Times,serif" font-size="14.00" fill="#66cd00">Types and functions</text>
</g>
<!-- cis01&#45;&gt;rwh02 -->
<g id="edge42" class="edge">
<title>cis01&#45;&gt;rwh02</title>
<path fill="none" stroke="#000000" d="M471.3808,-869.2369C487.7073,-908.4823 527.3092,-999.9969 551,-1023.6 564.0941,-1036.6456 580.98,-1047.1107 597.4925,-1055.2252"/>
<polygon fill="#000000" stroke="#000000" points="596.0609,-1058.4196 606.6012,-1059.4929 599.0308,-1052.0808 596.0609,-1058.4196"/>
</g>
<!-- cis02 -->
<g id="node16" class="node">
<title>cis02</title>
<text text-anchor="middle" x="480" y="-772.2" font-family="Times,serif" font-size="14.00" fill="#66cd00">Algebraic Data Types</text>
</g>
<!-- cis02&#45;&gt;cis01 -->
<g id="edge24" class="edge">
<title>cis02&#45;&gt;cis01</title>
<path fill="none" stroke="#000000" d="M476.1268,-794.507C474.293,-803.0801 472.0608,-813.5156 470.0138,-823.0853"/>
<polygon fill="#000000" stroke="#000000" points="466.5622,-822.4896 467.8929,-833.0005 473.4073,-823.9538 466.5622,-822.4896"/>
</g>
<!-- cis02&#45;&gt;rwh02 -->
<g id="edge43" class="edge">
<title>cis02&#45;&gt;rwh02</title>
<path fill="none" stroke="#000000" d="M510.3546,-794.4672C523.2514,-803.6528 537.2919,-815.9425 546,-830.4 591.1973,-905.4382 537.7444,-949.8407 585,-1023.6 592.6633,-1035.5613 603.9875,-1045.7496 615.4851,-1053.946"/>
<polygon fill="#000000" stroke="#000000" points="613.5857,-1056.8865 623.838,-1059.5591 617.4901,-1051.0764 613.5857,-1056.8865"/>
</g>
<!-- rwh03 -->
<g id="node29" class="node">
<title>rwh03</title>
<text text-anchor="middle" x="665" y="-1007" font-family="Times,serif" font-size="14.00" fill="#66cd00">Defining types,</text>
<text text-anchor="middle" x="665" y="-990.2" font-family="Times,serif" font-size="14.00" fill="#66cd00">streamlining functions</text>
</g>
<!-- cis02&#45;&gt;rwh03 -->
<g id="edge44" class="edge">
<title>cis02&#45;&gt;rwh03</title>
<path fill="none" stroke="#000000" d="M528.9055,-794.5035C546.65,-803.0979 565.6055,-814.9352 579,-830.4 614.8886,-871.8358 595.6206,-897.9476 622,-946 627.2772,-955.6129 634.057,-965.3804 640.6655,-974.0424"/>
<polygon fill="#000000" stroke="#000000" points="637.963,-976.268 646.8944,-981.9673 643.4665,-971.9423 637.963,-976.268"/>
</g>
<!-- cis03 -->
<g id="node17" class="node">
<title>cis03</title>
<text text-anchor="middle" x="467" y="-705.8" font-family="Times,serif" font-size="14.00" fill="#66cd00">Recursion patterns,</text>
<text text-anchor="middle" x="467" y="-689" font-family="Times,serif" font-size="14.00" fill="#66cd00">polymorphism, and the Prelude</text>
</g>
<!-- cis03&#45;&gt;cis02 -->
<g id="edge23" class="edge">
<title>cis03&#45;&gt;cis02</title>
<path fill="none" stroke="#000000" d="M470.6212,-722.436C472.0099,-730.4264 473.6183,-739.6809 475.1068,-748.2453"/>
<polygon fill="#000000" stroke="#000000" points="471.6794,-748.9654 476.8401,-758.2184 478.576,-747.7668 471.6794,-748.9654"/>
</g>
<!-- cis04 -->
<g id="node18" class="node">
<title>cis04</title>
<text text-anchor="middle" x="455" y="-628.2" font-family="Times,serif" font-size="14.00" fill="#66cd00">Higher&#45;order programming</text>
<text text-anchor="middle" x="455" y="-611.4" font-family="Times,serif" font-size="14.00" fill="#66cd00">and type inference</text>
</g>
<!-- cis04&#45;&gt;lyah06 -->
<g id="edge45" class="edge">
<title>cis04&#45;&gt;lyah06</title>
<path fill="none" stroke="#000000" d="M407.8975,-644.8057C391.5816,-653.909 374.3159,-665.9438 362,-680.8 327.5459,-722.3605 355.4816,-754.6073 319,-794.4 305.5238,-809.0993 287.4301,-820.3938 269.465,-828.891"/>
<polygon fill="#000000" stroke="#000000" points="267.8027,-825.8004 260.1073,-833.0827 270.6644,-832.1888 267.8027,-825.8004"/>
</g>
<!-- cis04&#45;&gt;cis03 -->
<g id="edge22" class="edge">
<title>cis04&#45;&gt;cis03</title>
<path fill="none" stroke="#000000" d="M458.2158,-644.7954C459.4533,-652.7978 460.8938,-662.1133 462.246,-670.8575"/>
<polygon fill="#000000" stroke="#000000" points="458.7881,-671.3996 463.7753,-680.7472 465.7059,-670.3298 458.7881,-671.3996"/>
</g>
<!-- cis05 -->
<g id="node19" class="node">
<title>cis05</title>
<text text-anchor="middle" x="460" y="-550.6" font-family="Times,serif" font-size="14.00" fill="#66cd00">More polymorphism and</text>
<text text-anchor="middle" x="460" y="-533.8" font-family="Times,serif" font-size="14.00" fill="#66cd00">type classes</text>
</g>
<!-- cis05&#45;&gt;cis04 -->
<g id="edge21" class="edge">
<title>cis05&#45;&gt;cis04</title>
<path fill="none" stroke="#000000" d="M458.6601,-567.1954C458.1501,-575.1109 457.5573,-584.3109 456.9992,-592.9722"/>
<polygon fill="#000000" stroke="#000000" points="453.4939,-592.9428 456.3436,-603.1472 460.4795,-593.393 453.4939,-592.9428"/>
</g>
<!-- cis06 -->
<g id="node20" class="node">
<title>cis06</title>
<text text-anchor="middle" x="457" y="-464.6" font-family="Times,serif" font-size="14.00" fill="#000000">Lazy evaluation</text>
</g>
<!-- cis06&#45;&gt;cis05 -->
<g id="edge20" class="edge">
<title>cis06&#45;&gt;cis05</title>
<path fill="none" stroke="#000000" d="M457.711,-487.1901C458.0392,-495.6819 458.438,-505.9971 458.8102,-515.6234"/>
<polygon fill="#000000" stroke="#000000" points="455.3152,-515.8222 459.1989,-525.6795 462.3099,-515.5517 455.3152,-515.8222"/>
</g>
<!-- cis07 -->
<g id="node21" class="node">
<title>cis07</title>
<text text-anchor="middle" x="453" y="-389.8" font-family="Times,serif" font-size="14.00" fill="#000000">Folds and monoids</text>
</g>
<!-- cis07&#45;&gt;lyah06 -->
<g id="edge46" class="edge">
<title>cis07&#45;&gt;lyah06</title>
<path fill="none" stroke="#000000" d="M429.1912,-412.0004C417.6659,-421.6688 404.3381,-434.385 395,-448 320.684,-556.3532 345.6242,-605.8325 285,-722.4 265.7172,-759.4767 238.6072,-799.3707 220.453,-824.7725"/>
<polygon fill="#000000" stroke="#000000" points="217.4408,-822.9659 214.4326,-833.1247 223.1194,-827.0591 217.4408,-822.9659"/>
</g>
<!-- cis07&#45;&gt;lyah11 -->
<g id="edge47" class="edge">
<title>cis07&#45;&gt;lyah11</title>
<path fill="none" stroke="#000000" d="M391.6155,-409.4079C349.9398,-419.8688 294.0807,-433.8898 247.1019,-445.6818"/>
<polygon fill="#000000" stroke="#000000" points="246.0672,-442.3329 237.2202,-448.1622 247.7714,-449.1223 246.0672,-442.3329"/>
</g>
<!-- cis07&#45;&gt;cis06 -->
<g id="edge19" class="edge">
<title>cis07&#45;&gt;cis06</title>
<path fill="none" stroke="#000000" d="M453.9683,-412.107C454.4219,-420.5888 454.9729,-430.8938 455.4802,-440.3796"/>
<polygon fill="#000000" stroke="#000000" points="451.9977,-440.8017 456.0268,-450.6005 458.9877,-440.4278 451.9977,-440.8017"/>
</g>
<!-- cis08 -->
<g id="node22" class="node">
<title>cis08</title>
<text text-anchor="middle" x="448" y="-317.8" font-family="Times,serif" font-size="14.00" fill="#000000">IO</text>
</g>
<!-- cis08&#45;&gt;lyah09 -->
<g id="edge48" class="edge">
<title>cis08&#45;&gt;lyah09</title>
<path fill="none" stroke="#000000" d="M422.6941,-340.1599C409.983,-349.9633 394.8156,-362.7517 383,-376 315.4241,-451.7703 332.7118,-498.4556 258,-567.2 243.0642,-580.9428 224.1902,-592.4832 206.5767,-601.4951"/>
<polygon fill="#000000" stroke="#000000" points="204.9235,-598.408 197.5084,-605.9755 208.0242,-604.6837 204.9235,-598.408"/>
</g>
<!-- cis08&#45;&gt;cis07 -->
<g id="edge18" class="edge">
<title>cis08&#45;&gt;cis07</title>
<path fill="none" stroke="#000000" d="M449.2617,-340.1686C449.7965,-347.869 450.4323,-357.0257 451.0266,-365.5834"/>
<polygon fill="#000000" stroke="#000000" points="447.5368,-365.8533 451.7213,-375.5867 454.52,-365.3683 447.5368,-365.8533"/>
</g>
<!-- rwh07 -->
<g id="node33" class="node">
<title>rwh07</title>
<text text-anchor="middle" x="706" y="-697.4" font-family="Times,serif" font-size="14.00" fill="#000000">Input and output</text>
</g>
<!-- cis08&#45;&gt;rwh07 -->
<g id="edge49" class="edge">
<title>cis08&#45;&gt;rwh07</title>
<path fill="none" stroke="#000000" d="M475.1001,-335.1262C491.3735,-344.3684 511.1542,-358.2503 523,-376 591.1144,-478.0623 508.8957,-549.3473 586,-644.8 600.3812,-662.6035 621.6591,-675.1412 642.3202,-683.8196"/>
<polygon fill="#000000" stroke="#000000" points="641.1562,-687.1229 651.7428,-687.5405 643.7272,-680.6122 641.1562,-687.1229"/>
</g>
<!-- cis09 -->
<g id="node23" class="node">
<title>cis09</title>
<text text-anchor="middle" x="443" y="-245.8" font-family="Times,serif" font-size="14.00" fill="#000000">Functors</text>
</g>
<!-- cis09&#45;&gt;lyah08 -->
<g id="edge50" class="edge">
<title>cis09&#45;&gt;lyah08</title>
<path fill="none" stroke="#000000" d="M428.2087,-268.0716C409.0684,-291.9216 375.2992,-335.6183 351,-376 282.2767,-490.2082 300.5688,-540.1635 218,-644.8 208.7312,-656.5461 196.7638,-667.6999 185.57,-676.9637"/>
<polygon fill="#000000" stroke="#000000" points="183.2132,-674.3674 177.6056,-683.3566 187.595,-679.8263 183.2132,-674.3674"/>
</g>
<!-- cis09&#45;&gt;cis08 -->
<g id="edge17" class="edge">
<title>cis09&#45;&gt;cis08</title>
<path fill="none" stroke="#000000" d="M444.2617,-268.1686C444.7965,-275.869 445.4323,-285.0257 446.0266,-293.5834"/>
<polygon fill="#000000" stroke="#000000" points="442.5368,-293.8533 446.7213,-303.5867 449.52,-293.3683 442.5368,-293.8533"/>
</g>
<!-- cis10 -->
<g id="node24" class="node">
<title>cis10</title>
<text text-anchor="middle" x="443" y="-173.8" font-family="Times,serif" font-size="14.00" fill="#000000">Applicative functors II</text>
</g>
<!-- cis10&#45;&gt;lyah11 -->
<g id="edge51" class="edge">
<title>cis10&#45;&gt;lyah11</title>
<path fill="none" stroke="#000000" d="M419.26,-196.0348C390.7418,-218.6842 342.8895,-259.9484 312,-304 281.8427,-347.0075 299.9702,-373.7213 264,-412 251.968,-424.8042 236.3996,-435.2478 220.8145,-443.5247"/>
<polygon fill="#000000" stroke="#000000" points="219.0096,-440.5152 211.6629,-448.1491 222.1667,-446.7629 219.0096,-440.5152"/>
</g>
<!-- cis10&#45;&gt;cis09 -->
<g id="edge16" class="edge">
<title>cis10&#45;&gt;cis09</title>
<path fill="none" stroke="#000000" d="M443,-196.1686C443,-203.869 443,-213.0257 443,-221.5834"/>
<polygon fill="#000000" stroke="#000000" points="439.5001,-221.5867 443,-231.5867 446.5001,-221.5868 439.5001,-221.5867"/>
</g>
<!-- cis11 -->
<g id="node25" class="node">
<title>cis11</title>
<text text-anchor="middle" x="443" y="-101.8" font-family="Times,serif" font-size="14.00" fill="#000000">Applicative functors I</text>
</g>
<!-- cis11&#45;&gt;lyah11 -->
<g id="edge52" class="edge">
<title>cis11&#45;&gt;lyah11</title>
<path fill="none" stroke="#000000" d="M380.0716,-124.0147C323.7505,-144.4511 250,-183.8425 250,-250 250,-250 250,-250 250,-322 250,-363.0745 251.258,-377.4791 229,-412 221.5868,-423.4974 211.0093,-433.5914 200.1626,-441.9564"/>
<polygon fill="#000000" stroke="#000000" points="197.8795,-439.2895 191.8635,-448.0107 202.005,-444.9446 197.8795,-439.2895"/>
</g>
<!-- cis11&#45;&gt;cis10 -->
<g id="edge15" class="edge">
<title>cis11&#45;&gt;cis10</title>
<path fill="none" stroke="#000000" d="M443,-124.1686C443,-131.869 443,-141.0257 443,-149.5834"/>
<polygon fill="#000000" stroke="#000000" points="439.5001,-149.5867 443,-159.5867 446.5001,-149.5868 439.5001,-149.5867"/>
</g>
<!-- cis12 -->
<g id="node26" class="node">
<title>cis12</title>
<text text-anchor="middle" x="487" y="-29.8" font-family="Times,serif" font-size="14.00" fill="#000000">Monads</text>
</g>
<!-- cis12&#45;&gt;lyah09 -->
<g id="edge53" class="edge">
<title>cis12&#45;&gt;lyah09</title>
<path fill="none" stroke="#000000" d="M456.1665,-36.3787C349.114,-45.4713 0,-82.4487 0,-178 0,-178 0,-178 0,-468.8 0,-517.8554 15.9043,-531.9308 50,-567.2 63.4127,-581.0743 80.9583,-592.4453 97.7579,-601.2706"/>
<polygon fill="#000000" stroke="#000000" points="96.4771,-604.5441 106.9833,-605.9113 99.6228,-598.2907 96.4771,-604.5441"/>
</g>
<!-- cis12&#45;&gt;lyah12 -->
<g id="edge54" class="edge">
<title>cis12&#45;&gt;lyah12</title>
<path fill="none" stroke="#000000" d="M456.2545,-35.9164C384.4942,-42.219 212,-68.733 212,-178 212,-178 212,-178 212,-250 212,-290.8816 209.3195,-302.5169 193,-340 188.8565,-349.517 182.8901,-359.0573 176.9088,-367.4137"/>
<polygon fill="#000000" stroke="#000000" points="173.9389,-365.5406 170.746,-375.6429 179.5419,-369.7367 173.9389,-365.5406"/>
</g>
<!-- cis12&#45;&gt;cis11 -->
<g id="edge14" class="edge">
<title>cis12&#45;&gt;cis11</title>
<path fill="none" stroke="#000000" d="M475.8969,-52.1686C470.9326,-60.2921 464.9778,-70.0363 459.5072,-78.9882"/>
<polygon fill="#000000" stroke="#000000" points="456.4806,-77.2288 454.2526,-87.5867 462.4536,-80.879 456.4806,-77.2288"/>
</g>
<!-- cis12&#45;&gt;rwh07 -->
<g id="edge55" class="edge">
<title>cis12&#45;&gt;rwh07</title>
<path fill="none" stroke="#000000" d="M517.62,-39.8046C590.959,-53.7098 770.6571,-87.7951 771,-88 815.2121,-114.4184 844,-126.4962 844,-178 844,-178 844,-178 844,-546.4 844,-591.0275 851.4094,-609.5815 824,-644.8 810.3178,-662.3804 789.823,-674.824 769.7349,-683.4876"/>
<polygon fill="#000000" stroke="#000000" points="768.2075,-680.3298 760.25,-687.3247 770.8328,-686.8189 768.2075,-680.3298"/>
</g>
<!-- rwh14 -->
<g id="node40" class="node">
<title>rwh14</title>
<text text-anchor="middle" x="678" y="-173.8" font-family="Times,serif" font-size="14.00" fill="#000000">Monads</text>
</g>
<!-- cis12&#45;&gt;rwh14 -->
<g id="edge56" class="edge">
<title>cis12&#45;&gt;rwh14</title>
<path fill="none" stroke="#000000" d="M504.3968,-52.1665C523.2365,-71.297 554.6747,-101.6811 585,-124 601.6203,-136.2323 621.2256,-147.9683 638.1398,-157.3562"/>
<polygon fill="#000000" stroke="#000000" points="636.7698,-160.596 647.2237,-162.3185 640.1256,-154.4528 636.7698,-160.596"/>
</g>
<!-- rwh15 -->
<g id="node41" class="node">
<title>rwh15</title>
<text text-anchor="middle" x="678" y="-101.8" font-family="Times,serif" font-size="14.00" fill="#000000">Programming with monads</text>
</g>
<!-- cis12&#45;&gt;rwh15 -->
<g id="edge57" class="edge">
<title>cis12&#45;&gt;rwh15</title>
<path fill="none" stroke="#000000" d="M517.6875,-45.568C545.329,-55.9879 586.6865,-71.5782 620.4709,-84.3136"/>
<polygon fill="#000000" stroke="#000000" points="619.642,-87.7415 630.2338,-87.9939 622.1112,-81.1915 619.642,-87.7415"/>
</g>
<!-- rwh02&#45;&gt;rwh01 -->
<g id="edge39" class="edge">
<title>rwh02&#45;&gt;rwh01</title>
<path fill="none" stroke="#000000" d="M656.9813,-1095.7686C656.1257,-1103.469 655.1083,-1112.6257 654.1574,-1121.1834"/>
<polygon fill="#000000" stroke="#000000" points="650.6717,-1120.8614 653.0459,-1131.1867 657.6289,-1121.6344 650.6717,-1120.8614"/>
</g>
<!-- rwh03&#45;&gt;rwh02 -->
<g id="edge38" class="edge">
<title>rwh03&#45;&gt;rwh02</title>
<path fill="none" stroke="#000000" d="M663.3287,-1023.636C662.6877,-1031.6264 661.9454,-1040.8809 661.2584,-1049.4453"/>
<polygon fill="#000000" stroke="#000000" points="657.7693,-1049.1705 660.4584,-1059.4184 664.7469,-1049.7303 657.7693,-1049.1705"/>
</g>
<!-- rwh04 -->
<g id="node30" class="node">
<title>rwh04</title>
<text text-anchor="middle" x="709" y="-923.8" font-family="Times,serif" font-size="14.00" fill="#000000">Functional programming</text>
</g>
<!-- rwh04&#45;&gt;rwh03 -->
<g id="edge37" class="edge">
<title>rwh04&#45;&gt;rwh03</title>
<path fill="none" stroke="#000000" d="M698.3488,-946.107C693.5801,-954.2139 687.8316,-963.9863 682.4606,-973.117"/>
<polygon fill="#000000" stroke="#000000" points="679.3191,-971.5546 677.2656,-981.9485 685.3526,-975.1037 679.3191,-971.5546"/>
</g>
<!-- rwh05 -->
<g id="node31" class="node">
<title>rwh05</title>
<text text-anchor="middle" x="709" y="-855.4" font-family="Times,serif" font-size="14.00" fill="#000000">Writing a library:</text>
<text text-anchor="middle" x="709" y="-838.6" font-family="Times,serif" font-size="14.00" fill="#000000">working with JSON data</text>
</g>
<!-- rwh05&#45;&gt;rwh04 -->
<g id="edge36" class="edge">
<title>rwh05&#45;&gt;rwh04</title>
<path fill="none" stroke="#000000" d="M709,-872.1859C709,-880.677 709,-890.6093 709,-899.7225"/>
<polygon fill="#000000" stroke="#000000" points="705.5001,-899.9088 709,-909.9089 712.5001,-899.9089 705.5001,-899.9088"/>
</g>
<!-- rwh06 -->
<g id="node32" class="node">
<title>rwh06</title>
<text text-anchor="middle" x="708" y="-772.2" font-family="Times,serif" font-size="14.00" fill="#000000">Using typeclasses</text>
</g>
<!-- rwh06&#45;&gt;rwh05 -->
<g id="edge35" class="edge">
<title>rwh06&#45;&gt;rwh05</title>
<path fill="none" stroke="#000000" d="M708.2421,-794.507C708.3448,-802.1917 708.4676,-811.3728 708.584,-820.0855"/>
<polygon fill="#000000" stroke="#000000" points="705.0878,-820.3962 708.7212,-830.3485 712.0871,-820.3026 705.0878,-820.3962"/>
</g>
<!-- rwh07&#45;&gt;rwh06 -->
<g id="edge34" class="edge">
<title>rwh07&#45;&gt;rwh06</title>
<path fill="none" stroke="#000000" d="M706.4841,-719.707C706.7109,-728.1888 706.9865,-738.4938 707.2401,-747.9796"/>
<polygon fill="#000000" stroke="#000000" points="703.7473,-748.2977 707.5134,-758.2005 710.7448,-748.1105 703.7473,-748.2977"/>
</g>
<!-- rwh08 -->
<g id="node34" class="node">
<title>rwh08</title>
<text text-anchor="middle" x="705" y="-628.2" font-family="Times,serif" font-size="14.00" fill="#000000">Efficient file processing, regular</text>
<text text-anchor="middle" x="705" y="-611.4" font-family="Times,serif" font-size="14.00" fill="#000000">expressions, and file name matching</text>
</g>
<!-- rwh08&#45;&gt;rwh07 -->
<g id="edge33" class="edge">
<title>rwh08&#45;&gt;rwh07</title>
<path fill="none" stroke="#000000" d="M705.268,-644.7954C705.3806,-653.5372 705.5135,-663.8458 705.6349,-673.2651"/>
<polygon fill="#000000" stroke="#000000" points="702.1367,-673.4369 705.7653,-683.3909 709.1361,-673.3466 702.1367,-673.4369"/>
</g>
<!-- rwh09 -->
<g id="node35" class="node">
<title>rwh09</title>
<text text-anchor="middle" x="705" y="-550.6" font-family="Times,serif" font-size="14.00" fill="#000000">I/O case study:</text>
<text text-anchor="middle" x="705" y="-533.8" font-family="Times,serif" font-size="14.00" fill="#000000">a library for searching the filesystem</text>
</g>
<!-- rwh09&#45;&gt;rwh08 -->
<g id="edge32" class="edge">
<title>rwh09&#45;&gt;rwh08</title>
<path fill="none" stroke="#000000" d="M705,-567.1954C705,-575.1109 705,-584.3109 705,-592.9722"/>
<polygon fill="#000000" stroke="#000000" points="701.5001,-593.1472 705,-603.1472 708.5001,-593.1473 701.5001,-593.1472"/>
</g>
<!-- rwh10 -->
<g id="node36" class="node">
<title>rwh10</title>
<text text-anchor="middle" x="703" y="-473" font-family="Times,serif" font-size="14.00" fill="#000000">Code case study:</text>
<text text-anchor="middle" x="703" y="-456.2" font-family="Times,serif" font-size="14.00" fill="#000000">parsing a binary data format</text>
</g>
<!-- rwh10&#45;&gt;rwh09 -->
<g id="edge31" class="edge">
<title>rwh10&#45;&gt;rwh09</title>
<path fill="none" stroke="#000000" d="M703.536,-489.5954C703.74,-497.5109 703.9771,-506.7109 704.2003,-515.3722"/>
<polygon fill="#000000" stroke="#000000" points="700.706,-515.6408 704.4626,-525.5472 707.7037,-515.4603 700.706,-515.6408"/>
</g>
<!-- rwh11 -->
<g id="node37" class="node">
<title>rwh11</title>
<text text-anchor="middle" x="700" y="-389.8" font-family="Times,serif" font-size="14.00" fill="#000000">Testing and quality assurance</text>
</g>
<!-- rwh11&#45;&gt;rwh10 -->
<g id="edge30" class="edge">
<title>rwh11&#45;&gt;rwh10</title>
<path fill="none" stroke="#000000" d="M700.7262,-412.107C701.0344,-419.7917 701.4027,-428.9728 701.7521,-437.6855"/>
<polygon fill="#000000" stroke="#000000" points="698.2657,-438.0968 702.1637,-447.9485 705.2601,-437.8162 698.2657,-438.0968"/>
</g>
<!-- rwh12 -->
<g id="node38" class="node">
<title>rwh12</title>
<text text-anchor="middle" x="687" y="-317.8" font-family="Times,serif" font-size="14.00" fill="#000000">Barcode recognition</text>
</g>
<!-- rwh12&#45;&gt;rwh11 -->
<g id="edge29" class="edge">
<title>rwh12&#45;&gt;rwh11</title>
<path fill="none" stroke="#000000" d="M690.2804,-340.1686C691.6708,-347.869 693.3241,-357.0257 694.8692,-365.5834"/>
<polygon fill="#000000" stroke="#000000" points="691.4542,-366.3678 696.6754,-375.5867 698.3428,-365.1239 691.4542,-366.3678"/>
</g>
<!-- rwh13 -->
<g id="node39" class="node">
<title>rwh13</title>
<text text-anchor="middle" x="680" y="-245.8" font-family="Times,serif" font-size="14.00" fill="#000000">Data structures</text>
</g>
<!-- rwh13&#45;&gt;rwh12 -->
<g id="edge28" class="edge">
<title>rwh13&#45;&gt;rwh12</title>
<path fill="none" stroke="#000000" d="M681.7664,-268.1686C682.515,-275.869 683.4053,-285.0257 684.2373,-293.5834"/>
<polygon fill="#000000" stroke="#000000" points="680.7585,-293.9724 685.2098,-303.5867 687.7256,-293.2949 680.7585,-293.9724"/>
</g>
<!-- rwh14&#45;&gt;rwh13 -->
<g id="edge27" class="edge">
<title>rwh14&#45;&gt;rwh13</title>
<path fill="none" stroke="#000000" d="M678.5047,-196.1686C678.7186,-203.869 678.9729,-213.0257 679.2106,-221.5834"/>
<polygon fill="#000000" stroke="#000000" points="675.7121,-221.6878 679.4885,-231.5867 682.7094,-221.4934 675.7121,-221.6878"/>
</g>
<!-- rwh15&#45;&gt;rwh14 -->
<g id="edge26" class="edge">
<title>rwh15&#45;&gt;rwh14</title>
<path fill="none" stroke="#000000" d="M678,-124.1686C678,-131.869 678,-141.0257 678,-149.5834"/>
<polygon fill="#000000" stroke="#000000" points="674.5001,-149.5867 678,-159.5867 681.5001,-149.5868 674.5001,-149.5867"/>
</g>
<!-- ... -->
<g id="node42" class="node">
<title>...</title>
<text text-anchor="middle" x="678" y="-29.8" font-family="Times,serif" font-size="14.00" fill="#000000">...</text>
</g>
<!-- ...&#45;&gt;rwh15 -->
<g id="edge25" class="edge">
<title>...&#45;&gt;rwh15</title>
<path fill="none" stroke="#000000" d="M678,-52.1686C678,-59.869 678,-69.0257 678,-77.5834"/>
<polygon fill="#000000" stroke="#000000" points="674.5001,-77.5867 678,-87.5867 681.5001,-77.5868 674.5001,-77.5867"/>
</g>
</g>
</svg>